<?xml version="1.0" encoding="utf-8"?>
<svg viewBox="93.875 187.969 527.266 100.344" xmlns="http://www.w3.org/2000/svg">
  <path d="M 113.425 267.266 L 101.955 267.266 C 101.328 267.266 100.818 267.053 100.425 266.626 C 100.025 266.199 99.825 265.703 99.825 265.136 L 99.825 209.886 C 99.825 209.266 100.025 208.756 100.425 208.356 C 100.818 207.963 101.328 207.766 101.955 207.766 L 125.755 207.766 C 130.455 207.766 134.548 208.489 138.035 209.936 C 141.522 211.376 144.242 213.543 146.195 216.436 C 148.148 219.323 149.125 222.976 149.125 227.396 C 149.125 231.763 148.148 235.363 146.195 238.196 C 144.242 241.029 141.522 243.126 138.035 244.486 C 134.548 245.846 130.455 246.526 125.755 246.526 L 115.635 246.526 L 115.635 265.136 C 115.635 265.703 115.422 266.199 114.995 266.626 C 114.575 267.053 114.052 267.266 113.425 267.266 Z M 115.385 219.576 L 115.385 234.796 L 125.325 234.796 C 127.765 234.796 129.705 234.173 131.145 232.926 C 132.592 231.679 133.315 229.779 133.315 227.226 C 133.315 225.073 132.692 223.259 131.445 221.786 C 130.198 220.313 128.158 219.576 125.325 219.576 L 115.385 219.576 ZM 234.714 267.266 L 195.614 267.266 C 194.988 267.266 194.478 267.053 194.084 266.626 C 193.684 266.199 193.484 265.703 193.484 265.136 L 193.484 209.886 C 193.484 209.266 193.684 208.756 194.084 208.356 C 194.478 207.963 194.988 207.766 195.614 207.766 L 206.834 207.766 C 207.454 207.766 207.964 207.963 208.364 208.356 C 208.758 208.756 208.954 209.266 208.954 209.886 L 208.954 254.426 L 234.714 254.426 C 235.334 254.426 235.844 254.639 236.244 255.066 C 236.638 255.493 236.834 256.016 236.834 256.636 L 236.834 265.136 C 236.834 265.703 236.638 266.199 236.244 266.626 C 235.844 267.053 235.334 267.266 234.714 267.266 ZM 287.489 267.266 L 277.029 267.266 C 276.576 267.266 276.166 267.083 275.799 266.716 C 275.432 266.349 275.249 265.936 275.249 265.476 C 275.249 265.196 275.276 264.943 275.329 264.716 L 295.309 210.146 C 295.476 209.519 295.829 208.966 296.369 208.486 C 296.909 208.006 297.659 207.766 298.619 207.766 L 311.199 207.766 C 312.166 207.766 312.916 208.006 313.449 208.486 C 313.989 208.966 314.346 209.519 314.519 210.146 L 334.409 264.716 C 334.522 264.943 334.579 265.196 334.579 265.476 C 334.579 265.936 334.392 266.349 334.019 266.716 C 333.652 267.083 333.216 267.266 332.709 267.266 L 322.249 267.266 C 321.402 267.266 320.766 267.053 320.339 266.626 C 319.912 266.199 319.642 265.816 319.529 265.476 L 316.219 256.806 L 293.519 256.806 L 290.289 265.476 C 290.176 265.816 289.922 266.199 289.529 266.626 C 289.129 267.053 288.449 267.266 287.489 267.266 Z M 304.909 222.126 L 297.009 244.566 L 312.819 244.566 L 304.909 222.126 ZM 389.818 267.266 L 379.618 267.266 C 378.991 267.266 378.481 267.053 378.088 266.626 C 377.688 266.199 377.488 265.703 377.488 265.136 L 377.488 209.886 C 377.488 209.266 377.688 208.756 378.088 208.356 C 378.481 207.963 378.991 207.766 379.618 207.766 L 388.628 207.766 C 389.588 207.766 390.281 207.979 390.708 208.406 C 391.128 208.826 391.398 209.149 391.518 209.376 L 412.258 242.016 L 412.258 209.886 C 412.258 209.266 412.455 208.756 412.848 208.356 C 413.248 207.963 413.758 207.766 414.378 207.766 L 424.578 207.766 C 425.205 207.766 425.715 207.963 426.108 208.356 C 426.508 208.756 426.708 209.266 426.708 209.886 L 426.708 265.056 C 426.708 265.676 426.508 266.199 426.108 266.626 C 425.715 267.053 425.205 267.266 424.578 267.266 L 415.488 267.266 C 414.581 267.266 413.915 267.039 413.488 266.586 C 413.061 266.133 412.791 265.819 412.678 265.646 L 391.938 234.196 L 391.938 265.136 C 391.938 265.703 391.738 266.199 391.338 266.626 C 390.945 267.053 390.438 267.266 389.818 267.266 ZM 499.202 268.116 C 493.875 268.116 489.285 267.236 485.432 265.476 C 481.572 263.723 478.582 261.146 476.462 257.746 C 474.335 254.346 473.158 250.123 472.932 245.076 C 472.878 242.756 472.852 240.263 472.852 237.596 C 472.852 234.936 472.878 232.386 472.932 229.946 C 473.158 225.019 474.348 220.826 476.502 217.366 C 478.655 213.913 481.658 211.306 485.512 209.546 C 489.365 207.793 493.928 206.916 499.202 206.916 C 502.942 206.916 506.398 207.383 509.572 208.316 C 512.745 209.249 515.522 210.609 517.902 212.396 C 520.282 214.183 522.135 216.336 523.462 218.856 C 524.795 221.376 525.492 224.223 525.552 227.396 C 525.605 227.909 525.448 228.336 525.082 228.676 C 524.715 229.016 524.275 229.186 523.762 229.186 L 512.292 229.186 C 511.552 229.186 510.985 229.029 510.592 228.716 C 510.192 228.403 509.852 227.823 509.572 226.976 C 508.778 223.969 507.488 221.916 505.702 220.816 C 503.915 219.709 501.718 219.156 499.112 219.156 C 495.998 219.156 493.535 220.019 491.722 221.746 C 489.908 223.473 488.915 226.349 488.742 230.376 C 488.575 235.023 488.575 239.783 488.742 244.656 C 488.915 248.676 489.908 251.553 491.722 253.286 C 493.535 255.013 495.998 255.876 499.112 255.876 C 501.718 255.876 503.928 255.309 505.742 254.176 C 507.555 253.043 508.832 251.003 509.572 248.056 C 509.792 247.203 510.115 246.623 510.542 246.316 C 510.968 246.003 511.552 245.846 512.292 245.846 L 523.762 245.846 C 524.275 245.846 524.715 246.016 525.082 246.356 C 525.448 246.696 525.605 247.119 525.552 247.626 C 525.492 250.799 524.795 253.649 523.462 256.176 C 522.135 258.696 520.282 260.849 517.902 262.636 C 515.522 264.416 512.745 265.776 509.572 266.716 C 506.398 267.649 502.942 268.116 499.202 268.116 ZM 583.511 267.266 L 572.801 267.266 C 572.174 267.266 571.664 267.053 571.271 266.626 C 570.871 266.199 570.671 265.703 570.671 265.136 L 570.671 209.886 C 570.671 209.266 570.871 208.756 571.271 208.356 C 571.664 207.963 572.174 207.766 572.801 207.766 L 583.511 207.766 C 584.131 207.766 584.641 207.963 585.041 208.356 C 585.434 208.756 585.631 209.266 585.631 209.886 L 585.631 228.756 L 601.361 209.376 C 601.587 209.036 601.967 208.683 602.501 208.316 C 603.041 207.949 603.764 207.766 604.671 207.766 L 616.911 207.766 C 617.424 207.766 617.851 207.949 618.191 208.316 C 618.531 208.683 618.701 209.093 618.701 209.546 C 618.701 209.946 618.614 210.286 618.441 210.566 L 598.041 236.236 L 619.971 264.456 C 620.197 264.683 620.311 265.023 620.311 265.476 C 620.311 265.936 620.141 266.349 619.801 266.716 C 619.461 267.083 619.037 267.266 618.531 267.266 L 605.861 267.266 C 604.841 267.266 604.061 267.039 603.521 266.586 C 602.987 266.133 602.634 265.793 602.461 265.566 L 585.631 244.566 L 585.631 265.136 C 585.631 265.703 585.434 266.199 585.041 266.626 C 584.641 267.053 584.131 267.266 583.511 267.266 Z" transform="matrix(1, 0, 0, 1, 0, 0)" style="fill: rgb(255, 254, 254); white-space: pre;"/>
</svg>