<?xml version="1.0" encoding="utf-8"?>
<svg viewBox="204.203 175.531 59.313 106.438" xmlns="http://www.w3.org/2000/svg">
  <path d="M 221.937 259.537 L 213.387 259.537 C 212.787 259.537 212.277 259.327 211.857 258.907 C 211.437 258.487 211.227 257.977 211.227 257.377 L 211.227 198.787 C 211.227 198.127 211.437 197.587 211.857 197.167 C 212.277 196.747 212.787 196.537 213.387 196.537 L 237.507 196.537 C 242.187 196.537 246.267 197.274 249.747 198.747 C 253.227 200.214 255.927 202.434 257.847 205.407 C 259.767 208.374 260.727 212.077 260.727 216.517 C 260.727 221.017 259.767 224.724 257.847 227.637 C 255.927 230.544 253.227 232.717 249.747 234.157 C 246.267 235.597 242.187 236.317 237.507 236.317 L 224.097 236.317 L 224.097 257.377 C 224.097 257.977 223.9 258.487 223.507 258.907 C 223.12 259.327 222.597 259.537 221.937 259.537 Z M 223.917 206.527 L 223.917 226.327 L 237.057 226.327 C 240.537 226.327 243.207 225.504 245.067 223.857 C 246.927 222.204 247.857 219.757 247.857 216.517 C 247.857 213.517 246.987 211.1 245.247 209.267 C 243.507 207.44 240.777 206.527 237.057 206.527 L 223.917 206.527 Z" transform="matrix(1, 0, 0, 1, 0, 0)" style="fill: rgb(255, 255, 255); white-space: pre;"/>
</svg>